<svg width="29" height="37" viewBox="0 0 29 37" fill="none" xmlns="http://www.w3.org/2000/svg">
<path d="M28.855 22.8799C27.6458 26.0388 25.4168 28.4807 22.2219 29.7734V22.8799L26.046 19.4805L22.2219 16.1297V11.3914C25.7068 11.1509 28.1276 8.61406 28.1276 5.50375C28.1276 1.43606 24.2076 0 21.9786 0C21.4945 0 20.9612 0 20.187 0.191937V0.383875C20.4771 0.383875 20.9121 0.335312 21.0571 0.335312C22.6055 0.335312 23.7679 1.0545 23.7679 2.442C23.7679 3.49419 22.8955 4.54869 21.3471 4.54869C17.523 4.54869 13.0206 1.48463 8.13001 1.48463C3.77264 1.48463 0.771837 4.69206 0.771837 7.94575C0.771837 11.1532 2.65933 12.2054 4.64505 12.9246L4.69417 12.7326C4.06734 12.3488 3.63231 11.6804 3.63231 10.6259C3.63231 9.18987 4.98887 7.99431 6.68223 7.99431C10.7964 7.99431 17.4295 11.3937 21.5459 11.3937H21.9318V16.1806L18.1077 19.4805L21.9318 22.8799V29.8683C20.3344 30.4418 18.6878 30.6822 16.9944 30.6822C10.6046 30.6822 6.53722 26.8528 6.53722 20.4864C6.53722 18.9556 6.73135 17.4709 7.16638 16.0349L10.3613 14.6474V28.7189L16.8494 25.8954V11.4885L7.3114 15.6996C8.2797 12.9246 10.2654 10.9127 12.6371 9.76338L12.5879 9.62C6.19808 11.0075 0 15.7944 0 22.9747C0.0023389 31.2558 7.07049 37 15.2987 37C24.0135 37 28.9509 31.2558 29 22.8799H28.855Z" fill="#F8F8F8"/>
</svg>
